<?xml version="1.0" standalone="no"?>
<!DOCTYPE svg PUBLIC "-//W3C//DTD SVG 20010904//EN"
 "http://www.w3.org/TR/2001/REC-SVG-20010904/DTD/svg10.dtd">
<svg version="1.0" xmlns="http://www.w3.org/2000/svg"
 width="256.000000pt" height="256.000000pt" viewBox="0 0 256.000000 256.000000"
 preserveAspectRatio="xMidYMid meet">

<g transform="translate(0.000000,256.000000) scale(0.100000,-0.100000)"
fill="#000000" stroke="none">
<path d="M1161 2005 c-23 -41 -41 -77 -41 -80 0 -3 24 -5 54 -5 l55 0 11 58
c6 31 13 67 16 80 4 19 0 22 -25 22 -26 0 -34 -8 -70 -75z"/>
<path d="M1488 2003 l-44 -78 54 -3 c30 -2 56 -2 57 0 2 2 10 38 18 81 l15 77
-29 0 c-24 0 -33 -9 -71 -77z"/>
<path d="M1801 2005 c-23 -41 -41 -77 -41 -80 0 -3 24 -5 54 -5 l55 0 11 58
c6 31 13 67 16 80 4 19 0 22 -25 22 -26 0 -34 -8 -70 -75z"/>
<path d="M1027 1850 l-11 -30 -129 0 -128 0 -13 -32 c-7 -18 -16 -45 -20 -60
l-6 -28 710 0 c390 0 710 4 710 8 0 10 -18 116 -25 150 l-5 22 -536 0 -536 0
-11 -30z m109 -21 c10 -17 -23 -46 -37 -32 -7 7 -9 19 -6 27 7 18 33 21 43 5z
m112 -10 c4 -19 -27 -34 -41 -20 -14 14 0 43 20 39 10 -2 19 -10 21 -19z m109
5 c3 -8 1 -20 -6 -27 -14 -14 -47 15 -37 32 10 16 36 13 43 -5z m108 -9 c0
-28 -29 -25 -33 3 -3 19 0 23 15 20 10 -2 18 -12 18 -23z m118 11 c8 -20 -20
-43 -35 -28 -14 14 -3 42 16 42 7 0 16 -6 19 -14z m113 3 c10 -17 -23 -46 -37
-32 -7 7 -9 19 -6 27 7 18 33 21 43 5z m111 -5 c3 -8 1 -20 -6 -27 -14 -14
-47 15 -37 32 10 16 36 13 43 -5z m110 0 c3 -8 1 -20 -5 -26 -15 -15 -43 8
-35 28 7 19 32 18 40 -2z m111 -6 c-2 -13 -10 -23 -18 -23 -8 0 -16 10 -18 23
-3 17 2 22 18 22 16 0 21 -5 18 -22z"/>
<path d="M513 1555 c-24 -62 -36 -105 -29 -105 6 0 76 -7 156 -15 80 -8 148
-15 151 -15 4 0 18 -18 33 -40 l26 -40 548 0 547 0 23 35 22 35 135 0 c135 0
135 0 130 23 -3 12 -13 67 -23 122 l-18 100 -830 3 -831 2 -40 -105z m197 30
c0 -23 -3 -25 -50 -25 -47 0 -50 2 -50 25 0 23 3 25 50 25 47 0 50 -2 50 -25z
m150 0 c0 -23 -3 -25 -50 -25 -47 0 -50 2 -50 25 0 23 3 25 50 25 47 0 50 -2
50 -25z m150 0 c0 -23 -3 -25 -50 -25 -47 0 -50 2 -50 25 0 23 3 25 50 25 47
0 50 -2 50 -25z m150 0 c0 -23 -3 -25 -50 -25 -47 0 -50 2 -50 25 0 23 3 25
50 25 47 0 50 -2 50 -25z m150 0 c0 -23 -3 -25 -50 -25 -47 0 -50 2 -50 25 0
23 3 25 50 25 47 0 50 -2 50 -25z m150 0 c0 -23 -3 -25 -50 -25 -47 0 -50 2
-50 25 0 23 3 25 50 25 47 0 50 -2 50 -25z m150 0 c0 -23 -3 -25 -50 -25 -47
0 -50 2 -50 25 0 23 3 25 50 25 47 0 50 -2 50 -25z m150 0 c0 -23 -3 -25 -50
-25 -47 0 -50 2 -50 25 0 23 3 25 50 25 47 0 50 -2 50 -25z m150 0 c0 -23 -3
-25 -50 -25 -47 0 -50 2 -50 25 0 23 3 25 50 25 47 0 50 -2 50 -25z m278 3 c3
-16 -6 -18 -82 -18 -80 0 -86 1 -86 20 0 20 5 21 82 18 70 -3 83 -6 86 -20z
m12 -63 c0 -12 -16 -15 -85 -15 -69 0 -85 3 -85 15 0 12 16 15 85 15 69 0 85
-3 85 -15z m-1520 -40 c0 -23 -3 -25 -50 -25 -47 0 -50 2 -50 25 0 23 3 25 50
25 47 0 50 -2 50 -25z m150 0 c0 -23 -3 -25 -50 -25 -47 0 -50 2 -50 25 0 23
3 25 50 25 47 0 50 -2 50 -25z m150 0 c0 -23 -3 -25 -50 -25 -47 0 -50 2 -50
25 0 23 3 25 50 25 47 0 50 -2 50 -25z m150 -1 c0 -24 -2 -25 -47 -22 -41 3
-48 6 -51 26 -3 20 0 22 47 22 48 0 51 -2 51 -26z m158 4 c-3 -20 -9 -23 -53
-23 -44 0 -50 3 -53 23 -3 21 0 22 53 22 53 0 56 -1 53 -22z m150 0 c-3 -20
-10 -23 -50 -26 -46 -3 -48 -2 -48 22 0 24 3 26 51 26 47 0 50 -2 47 -22z
m152 -3 c0 -23 -3 -25 -50 -25 -47 0 -50 2 -50 25 0 23 3 25 50 25 47 0 50 -2
50 -25z m150 0 c0 -23 -3 -25 -50 -25 -47 0 -50 2 -50 25 0 23 3 25 50 25 47
0 50 -2 50 -25z m150 0 c0 -23 -3 -25 -50 -25 -47 0 -50 2 -50 25 0 23 3 25
50 25 47 0 50 -2 50 -25z m318 -27 c3 -16 -6 -18 -82 -18 -80 0 -86 1 -86 20
0 20 5 21 82 18 70 -3 83 -6 86 -20z"/>
<path d="M40 1422 c0 -13 82 -125 138 -187 62 -70 146 -140 223 -186 l65 -39
961 0 961 0 47 58 c70 83 97 147 93 219 l-3 58 -252 3 -251 2 -22 -35 -22 -35
-581 0 -582 0 -25 40 c-14 23 -34 43 -45 45 -11 2 -157 16 -325 30 -168 14
-322 28 -342 31 -22 3 -38 2 -38 -4z m400 -152 c0 -16 -7 -20 -35 -20 -28 0
-35 4 -35 20 0 16 7 20 35 20 28 0 35 -4 35 -20z m110 0 c0 -16 -7 -20 -35
-20 -28 0 -35 4 -35 20 0 16 7 20 35 20 28 0 35 -4 35 -20z m100 0 c0 -16 -7
-20 -35 -20 -28 0 -35 4 -35 20 0 16 7 20 35 20 28 0 35 -4 35 -20z m108 -2
c3 -15 -4 -18 -32 -18 -30 0 -36 4 -36 21 0 17 5 20 32 17 22 -2 34 -9 36 -20z
m1352 2 c0 -16 -7 -20 -35 -20 -28 0 -35 4 -35 20 0 16 7 20 35 20 28 0 35 -4
35 -20z m100 0 c0 -16 -7 -20 -30 -20 -23 0 -30 4 -30 20 0 16 7 20 30 20 23
0 30 -4 30 -20z m110 0 c0 -16 -7 -20 -35 -20 -28 0 -35 4 -35 20 0 16 7 20
35 20 28 0 35 -4 35 -20z m100 0 c0 -16 -7 -20 -30 -20 -23 0 -30 4 -30 20 0
16 7 20 30 20 23 0 30 -4 30 -20z m-1930 -75 c0 -11 -12 -15 -50 -15 -38 0
-50 4 -50 15 0 11 12 15 50 15 38 0 50 -4 50 -15z m160 0 c0 -11 -12 -15 -50
-15 -38 0 -50 4 -50 15 0 11 12 15 50 15 38 0 50 -4 50 -15z m160 0 c0 -11
-12 -15 -50 -15 -38 0 -50 4 -50 15 0 11 12 15 50 15 38 0 50 -4 50 -15z m158
-2 c3 -9 -12 -13 -52 -13 -44 0 -56 3 -56 16 0 12 10 14 52 12 30 -2 53 -8 56
-15z m152 2 c0 -11 -12 -15 -50 -15 -38 0 -50 4 -50 15 0 11 12 15 50 15 38 0
50 -4 50 -15z m160 0 c0 -11 -12 -15 -50 -15 -38 0 -50 4 -50 15 0 11 12 15
50 15 38 0 50 -4 50 -15z m160 0 c0 -12 -13 -15 -55 -15 -51 0 -65 7 -48 23 3
4 28 7 55 7 36 0 48 -4 48 -15z m150 0 c0 -11 -12 -15 -50 -15 -38 0 -50 4
-50 15 0 11 12 15 50 15 38 0 50 -4 50 -15z m160 0 c0 -11 -12 -15 -50 -15
-38 0 -50 4 -50 15 0 11 12 15 50 15 38 0 50 -4 50 -15z m160 0 c0 -11 -12
-15 -50 -15 -38 0 -50 4 -50 15 0 11 12 15 50 15 38 0 50 -4 50 -15z m158 -2
c3 -9 -12 -13 -52 -13 -44 0 -56 3 -56 16 0 12 10 14 52 12 30 -2 53 -8 56
-15z m152 2 c0 -11 -12 -15 -50 -15 -38 0 -50 4 -50 15 0 11 12 15 50 15 38 0
50 -4 50 -15z"/>
<path d="M1500 894 c-19 -2 -111 -17 -205 -32 -232 -37 -469 -38 -625 -3 -76
17 -140 23 -230 25 -144 1 -342 -12 -335 -23 2 -5 54 -11 114 -14 167 -10 301
-34 453 -83 245 -78 342 -81 653 -19 222 45 322 47 595 15 221 -25 333 -23
431 10 57 20 145 67 137 75 -1 2 -28 -3 -58 -11 -96 -25 -245 -18 -461 21
-186 34 -379 50 -469 39z"/>
<path d="M1500 613 c-19 -2 -81 -13 -138 -23 -122 -24 -227 -25 -302 -6 -93
24 -147 29 -248 21 -108 -8 -102 -18 18 -29 47 -4 120 -22 194 -47 158 -55
203 -58 341 -25 156 38 212 41 355 21 155 -22 233 -17 295 20 26 15 45 28 43
31 -2 2 -22 -1 -44 -7 -48 -14 -142 -7 -254 20 -91 21 -203 32 -260 24z"/>
</g>
</svg>
